name C:\Users\Nicos\Documents\OpenSimProjects\SprintingProject\Study1\PredictiveResults\IC_pred_Sprinting_optimum_27-October-2023__11-17-52___IKTD_Plus_2_p02_maxVel_01.mot
datacolumns 38
datarows 7
range 0.21293672 0.21858575
endheader
                time	/jointset/ground_pelvis/pelvis_tilt/value	/jointset/ground_pelvis/pelvis_list/value	/jointset/ground_pelvis/pelvis_rotation/value	/jointset/ground_pelvis/pelvis_tx/value	/jointset/ground_pelvis/pelvis_ty/value	/jointset/ground_pelvis/pelvis_tz/value	/jointset/hip_r/hip_flexion_r/value	/jointset/hip_r/hip_adduction_r/value	/jointset/hip_r/hip_rotation_r/value	/jointset/knee_r/knee_angle_r/value	/jointset/ankle_r/ankle_angle_r/value	/jointset/subtalar_r/subtalar_angle_r/value	/jointset/mtp_r/mtp_angle_r/value	/jointset/hip_l/hip_flexion_l/value	/jointset/hip_l/hip_adduction_l/value	/jointset/hip_l/hip_rotation_l/value	/jointset/knee_l/knee_angle_l/value	/jointset/ankle_l/ankle_angle_l/value	/jointset/subtalar_l/subtalar_angle_l/value	/jointset/mtp_l/mtp_angle_l/value	/jointset/back/lumbar_extension/value	/jointset/back/lumbar_bending/value	/jointset/back/lumbar_rotation/value	/jointset/acromial_r/arm_flex_r/value	/jointset/acromial_r/arm_add_r/value	/jointset/acromial_r/arm_rot_r/value	/jointset/elbow_r/elbow_flex_r/value	/jointset/radioulnar_r/pro_sup_r/value	/jointset/radius_hand_r/wrist_flex_r/value	/jointset/radius_hand_r/wrist_dev_r/value	/jointset/acromial_l/arm_flex_l/value	/jointset/acromial_l/arm_add_l/value	/jointset/acromial_l/arm_rot_l/value	/jointset/elbow_l/elbow_flex_l/value	/jointset/radioulnar_l/pro_sup_l/value	/jointset/radius_hand_l/wrist_flex_l/value	/jointset/radius_hand_l/wrist_dev_l/value	
          0.21293672	         -3.29062579	          5.79559638	        -11.32238429	          1.85564047	          0.99804717	          0.31588124	         -2.04345328	        -13.48303060	          8.90159191	        -86.30300378	        -24.25694330	        -13.70368227	        -10.47152096	         58.56482878	         -6.53345553	         -2.52300174	        -41.71442275	        -23.94742871	        -27.09357001	         10.96414468	        -21.65504031	        -10.24787490	         10.31208944	         60.36959859	        -16.75272227	         -5.26086249	        104.87331484	         62.29607864	          0.19125697	          6.29408048	        -56.12723935	        -12.29758680	         -8.90424043	         63.74949994	         60.35527812	        -20.49233821	          6.06364921	
          0.21441688	         -3.29578224	          5.78101642	        -10.95471860	          1.87311973	          0.99871778	          0.31583807	         -1.66026158	        -13.35611218	          8.67134807	        -87.26105610	        -23.88408583	        -13.80089923	        -10.47075625	         57.85421546	         -6.10035372	         -2.18537861	        -40.62980979	        -24.24652630	        -27.53192829	         10.68289560	        -21.73268509	        -10.29943860	         10.22119309	         58.59454221	        -17.41245824	         -6.00627766	        104.33150603	         61.67333892	          0.35730281	          6.24896727	        -55.44646372	        -12.95727338	         -9.51412017	         64.42457057	         60.72471350	        -20.75199256	          6.01800488	
          0.21441688	         -3.29578224	          5.78101642	        -10.95471860	          1.87311973	          0.99871778	          0.31583807	         -1.66026158	        -13.35611218	          8.67134807	        -87.26105610	        -23.88408583	        -13.80089923	        -10.47075625	         57.85421546	         -6.10035372	         -2.18537861	        -40.62980979	        -24.24652630	        -27.53192829	         10.68289560	        -21.73268509	        -10.29943860	         10.22119309	         58.59454221	        -17.41245824	         -6.00627766	        104.33150603	         61.67333892	          0.35730281	          6.24896727	        -55.44646372	        -12.95727338	         -9.51412017	         64.42457057	         60.72471350	        -20.75199256	          6.01800488	
          0.21506327	         -3.30107968	          5.77321334	        -10.79028398	          1.88076272	          0.99900090	          0.31581215	         -1.48724428	        -13.29979870	          8.56698202	        -87.67838973	        -23.71939135	        -13.84533238	        -10.47063003	         57.54575201	         -5.91067762	         -2.03149044	        -40.16752727	        -24.37150594	        -27.72751931	         10.55753081	        -21.76203588	        -10.31831856	         10.18150995	         57.80345190	        -17.70032840	         -6.33508777	        104.07921240	         61.39905794	          0.42708290	          6.22903937	        -55.14397065	        -13.24536610	         -9.78416842	         64.73761714	         60.88871822	        -20.86513470	          5.99807929	
          0.21710559	         -3.32715809	          5.74293839	        -10.25659627	          1.90494780	          0.99985841	          0.31570225	         -0.92016229	        -13.11989528	          8.22322771	        -88.99283904	        -23.19295765	        -13.99141284	        -10.47137472	         56.57529715	         -5.31103759	         -1.52378507	        -38.75135105	        -24.74685722	        -28.35919327	         10.15053638	        -21.83998445	        -10.36391619	         10.05569386	         55.24842252	        -18.60496949	         -7.37416814	        103.21873506	         60.53072421	          0.63644149	          6.16606322	        -54.16454975	        -14.15563143	        -10.64055655	         65.79924560	         61.41504603	        -21.22058006	          5.93510254	
          0.21858575	         -3.35391642	          5.71580882	         -9.85782158	          1.92250706	          1.00044413	          0.31559669	         -0.48980402	        -12.98861127	          7.96254419	        -89.94205649	        -22.80618074	        -14.10058640	        -10.47255564	         55.87464668	         -4.87822832	         -1.13983133	        -37.76599913	        -25.00315752	        -28.82518451	          9.84386798	        -21.88366794	        -10.38393998	          9.96406103	         53.35152941	        -19.25317438	         -8.11467393	        102.53494139	         59.90086027	          0.77753977	          6.12043681	        -53.42932458	        -14.81532759	        -11.25344157	         66.63594980	         61.80420388	        -21.47498206	          5.88948404	
          0.21858575	         -3.35391642	          5.71580882	         -9.85782158	          1.92250706	          1.00044413	          0.31559669	         -0.48980402	        -12.98861127	          7.96254419	        -89.94205649	        -22.80618074	        -14.10058640	        -10.47255564	         55.87464668	         -4.87822832	         -1.13983133	        -37.76599913	        -25.00315752	        -28.82518451	          9.84386798	        -21.88366794	        -10.38393998	          9.96406103	         53.35152941	        -19.25317438	         -8.11467393	        102.53494139	         59.90086027	          0.77753977	          6.12043681	        -53.42932458	        -14.81532759	        -11.25344157	         66.63594980	         61.80420388	        -21.47498206	          5.88948404	
